<?xml version="1.0" standalone="no"?><!DOCTYPE svg PUBLIC "-//W3C//DTD SVG 1.1//EN" "http://www.w3.org/Graphics/SVG/1.1/DTD/svg11.dtd"><svg t="1761190245656" class="icon" viewBox="0 0 1024 1024" version="1.1" xmlns="http://www.w3.org/2000/svg" p-id="2399" xmlns:xlink="http://www.w3.org/1999/xlink" width="200" height="200"><path d="M355.2 563.2h467.2L713.6 672l73.6 73.6L1024 512 787.2 275.2l-76.8 73.6 108.8 108.8h-464v105.6zM512 918.4c-108.8 0-211.2-41.6-288-118.4S105.6 620.8 105.6 512 147.2 300.8 224 224s179.2-118.4 288-118.4S723.2 147.2 800 224l73.6-73.6-67.2-57.6C716.8 32 617.6 0 512 0 230.4 0 0 230.4 0 512s230.4 512 512 512c105.6 0 208-32 294.4-92.8 25.6-16 48-35.2 67.2-57.6L796.8 800c-76.8 76.8-176 118.4-284.8 118.4z m473.6-403.2V512v3.2z" fill="#888888" p-id="2400"></path></svg>