<?xml version="1.0" standalone="no"?><!DOCTYPE svg PUBLIC "-//W3C//DTD SVG 1.1//EN" "http://www.w3.org/Graphics/SVG/1.1/DTD/svg11.dtd"><svg t="1765683586360" class="icon" viewBox="0 0 1024 1024" version="1.1" xmlns="http://www.w3.org/2000/svg" p-id="4172" xmlns:xlink="http://www.w3.org/1999/xlink" width="200" height="200"><path d="M481.1 448.7l389.1-253.6C857 183 840 175.6 821.4 175.6H139.9c-18.5 0-35.4 7.2-48.4 19.2l389.6 253.9z" fill="#cdcdcd" p-id="4173"></path><path d="M513.5 504c-8.9 5.8-20.7 8.7-32.4 8.7s-23.5-2.9-32.4-8.7L65.4 254.1V734.4c0 62.9 47 114 104.7 114h322.7c-12.9-32.4-19.5-66.6-19.5-101.8 0-37.1 7.3-73.1 21.6-107.1 13.9-32.8 33.7-62.2 58.9-87.4 25.2-25.2 54.6-45.1 87.4-58.9 34-14.4 70-21.6 107.1-21.6s73.1 7.3 107.1 21.6c14.1 6 27.7 13.1 40.5 21.2V255.6v-0.9L513.5 504z" fill="#cdcdcd" p-id="4174"></path><path d="M748.4 535.6c-116.6 0-211.1 94.5-211.1 211.1s94.5 211.1 211.1 211.1 211.1-94.5 211.1-211.1S865 535.6 748.4 535.6z m135.7 235.8l-79.2 66.4c-6 5-13.3 7.5-20.5 7.5-9.1 0-18.2-3.9-24.5-11.4-11.4-13.5-9.6-33.7 4-45.1l12-10.1H633.2c-17.7 0-32-14.3-32-32s14.3-32 32-32h140.9l-12-9.9c-13.6-11.2-15.6-31.4-4.4-45 11.2-13.6 31.4-15.6 45-4.4l81.1 66.8c7.3 6 11.6 15 11.7 24.6 0.1 9.4-4.1 18.5-11.4 24.6z" fill="#cdcdcd" p-id="4175"></path></svg>