<?xml version="1.0" standalone="no"?><!DOCTYPE svg PUBLIC "-//W3C//DTD SVG 1.1//EN" "http://www.w3.org/Graphics/SVG/1.1/DTD/svg11.dtd"><svg t="1757565043211" class="icon" viewBox="0 0 1024 1024" version="1.1" xmlns="http://www.w3.org/2000/svg" p-id="4707" xmlns:xlink="http://www.w3.org/1999/xlink" width="200" height="200"><path d="M859.648 361.642667a42.666667 42.666667 0 1 1 72.704 44.714666C843.861333 550.272 685.738667 640 512 640s-331.861333-89.728-420.352-233.642667a42.666667 42.666667 0 0 1 72.704-44.714666C237.397333 480.469333 368.128 554.666667 512 554.666667s274.602667-74.197333 347.648-193.024zM512 682.666667a42.666667 42.666667 0 0 1 42.666667 42.666666v85.333334a42.666667 42.666667 0 0 1-85.333334 0v-85.333334a42.666667 42.666667 0 0 1 42.666667-42.666666z m-298.666667-73.898667a42.666667 42.666667 0 0 1 15.616 58.282667l-42.666666 73.898666a42.666667 42.666667 0 1 1-73.898667-42.666666l42.666667-73.898667A42.666667 42.666667 0 0 1 213.333333 608.768z m597.333334 9.898667a42.666667 42.666667 0 0 1 58.282666 15.616l42.666667 73.898666a42.666667 42.666667 0 0 1-73.898667 42.666667l-42.666666-73.898667A42.666667 42.666667 0 0 1 810.666667 618.666667z" fill="#ff8c62" p-id="4708"></path></svg>