<?xml version="1.0" standalone="no"?><!DOCTYPE svg PUBLIC "-//W3C//DTD SVG 1.1//EN" "http://www.w3.org/Graphics/SVG/1.1/DTD/svg11.dtd"><svg t="1757565073883" class="icon" viewBox="0 0 1024 1024" version="1.1" xmlns="http://www.w3.org/2000/svg" p-id="6982" xmlns:xlink="http://www.w3.org/1999/xlink" width="200" height="200"><path d="M512 768c166.4 0 320-98.133333 413.866667-256-98.133333-157.866667-247.466667-256-413.866667-256s-320 98.133333-413.866667 256c93.866667 157.866667 247.466667 256 413.866667 256z m0-597.333333c217.6 0 405.333333 136.533333 512 341.333333-106.666667 204.8-294.4 341.333333-512 341.333333s-405.333333-136.533333-512-341.333333c106.666667-204.8 294.4-341.333333 512-341.333333z m0 512c93.866667 0 170.666667-76.8 170.666667-170.666667s-76.8-170.666667-170.666667-170.666667-170.666667 76.8-170.666667 170.666667 76.8 170.666667 170.666667 170.666667z m0-85.333334c-46.933333 0-85.333333-38.4-85.333333-85.333333s38.4-85.333333 85.333333-85.333333 85.333333 38.4 85.333333 85.333333-38.4 85.333333-85.333333 85.333333z" fill="#ff8c62" p-id="6983"></path></svg>